# xmcd
#
# Track frame offsets: 
#        150
#        20711
#        34881
#        63168
#        81982
#        104498
#        122951
#        146214
#        194337
#
# Disc length: 2902 seconds
#
# Revision: 0
# Processed by: cddbd v1.5.2PL0 Copyright (c) Steve Scherf et al.
# Submitted via: ExactAudioCopy v0.99pb5
#
DISCID=860b5409
DTITLE=Vince Esquire - First Offense
DYEAR=2012
DGENRE=Blues
TTITLE0=Blues Is My Business
TTITLE1=Check Out Her Mama
TTITLE2=Leave My Girl Alone
TTITLE3=When You Used To Love Me
TTITLE4=Deliver Me
TTITLE5=Better This Time
TTITLE6=Freight Train
TTITLE7=Tin Pan Alley
TTITLE8=Rock Me Baby (Bonus Track)
EXTD=
EXTT0=
EXTT1=
EXTT2=
EXTT3=
EXTT4=
EXTT5=
EXTT6=
EXTT7=
EXTT8=
PLAYORDER=
